<svg width="471" height="896" viewBox="0 0 471 896" fill="none" xmlns="http://www.w3.org/2000/svg">
<path fill-rule="evenodd" clip-rule="evenodd" d="M660.521 409.959C644.952 419.424 629.279 427.315 613.282 433.83C597.405 440.251 581.206 445.304 564.902 448.673C596.775 453.819 628.648 466.336 660.521 486.232L858.285 603.824L775.612 744.682L577.847 627.08C562.269 617.607 547.648 607.938 533.866 597.943C520.084 588.051 507.994 577.116 497.673 565.009C507.994 595.207 513.141 627.927 513.141 663.272V895.953H343.786V665.896C343.786 648.643 344.931 631.603 347.044 614.768C349.147 597.943 352.832 582.262 358.09 567.642C338.203 590.051 312.334 609.827 280.461 627.08L84.055 742.16L0 601.2L197.764 486.232C214.068 476.647 230.27 468.765 246.267 462.241C262.143 455.82 278.347 451.297 294.661 448.673C278.347 446.151 261.94 441.414 245.626 434.472C229.229 427.632 213.231 419.424 197.764 409.959L0 292.246L82.6873 152.654L280.461 270.265C312.334 287.509 338.624 307.815 359.358 331.062C349.047 301.822 343.786 269.428 343.786 234.074V0.126953H513.141V231.542C513.141 248.796 512.088 265.742 509.883 282.568C507.78 299.393 504.096 315.074 498.95 329.806C509.261 317.698 521.134 306.978 534.498 297.402C547.861 287.937 562.269 278.883 577.847 270.265L774.235 155.288L858.285 294.87L660.521 409.959Z" fill="#F2D43A"/>
</svg>
